<?xml version="1.0" encoding="UTF-8"?>
<svg width="156px" height="25px" viewBox="0 0 156 25" version="1.1" xmlns="http://www.w3.org/2000/svg" xmlns:xlink="http://www.w3.org/1999/xlink">
    <!-- Generator: Sketch 48.2 (47327) - http://www.bohemiancoding.com/sketch -->
    <title>Group 8</title>
    <desc>Created with Sketch.</desc>
    <defs></defs>
    <g id="home-copy" stroke="none" stroke-width="1" fill="none" fill-rule="evenodd" transform="translate(-56.000000, -31.000000)">
        <g id="Group-6" transform="translate(56.000000, 31.000000)">
            <g id="Group-8">
                <path d="M42.584,4.48 C41.9599969,3.79199656 41.2720038,3.3080014 40.52,3.028 C39.7679962,2.7479986 38.888005,2.608 37.88,2.608 C36.071991,2.608 34.7600041,2.95199656 33.944,3.64 C33.1279959,4.32800344 32.72,5.24799424 32.72,6.4 C32.72,6.97600288 32.819999,7.45999804 33.02,7.852 C33.220001,8.24400196 33.5279979,8.57599864 33.944,8.848 C34.3600021,9.12000136 34.8959967,9.34799908 35.552,9.532 C36.2080033,9.71600092 36.9919954,9.90399904 37.904,10.096 C38.8320046,10.288001 39.6719962,10.4959989 40.424,10.72 C41.1760038,10.9440011 41.8159974,11.2279983 42.344,11.572 C42.8720026,11.9160017 43.2799986,12.3439974 43.568,12.856 C43.8560014,13.3680026 44,13.9999962 44,14.752 C44,15.4720036 43.8600014,16.1039973 43.58,16.648 C43.2999986,17.1920027 42.8960026,17.6479982 42.368,18.016 C41.8399974,18.3840018 41.2040037,18.6599991 40.46,18.844 C39.7159963,19.0280009 38.8880046,19.12 37.976,19.12 C36.6159932,19.12 35.3920054,18.9080021 34.304,18.484 C33.2159946,18.0599979 32.2080046,17.4080044 31.28,16.528 L31.784,15.928 C32.584004,16.7440041 33.4959949,17.3599979 34.52,17.776 C35.5440051,18.1920021 36.7039935,18.4 38,18.4 C39.600008,18.4 40.8599954,18.1080029 41.78,17.524 C42.7000046,16.9399971 43.16,16.048006 43.16,14.848 C43.16,14.239997 43.0480011,13.7240021 42.824,13.3 C42.5999989,12.8759979 42.2600023,12.5160015 41.804,12.22 C41.3479977,11.9239985 40.7720035,11.6680011 40.076,11.452 C39.3799965,11.2359989 38.5600047,11.032001 37.616,10.84 C36.6879954,10.647999 35.8680036,10.448001 35.156,10.24 C34.4439964,10.031999 33.8440024,9.7680016 33.356,9.448 C32.8679976,9.1279984 32.5000012,8.73600232 32.252,8.272 C32.0039988,7.80799768 31.88,7.22400352 31.88,6.52 C31.88,5.76799624 32.0239986,5.10000292 32.312,4.516 C32.6000014,3.93199708 33.0039974,3.44400196 33.524,3.052 C34.0440026,2.65999804 34.6719963,2.36000104 35.408,2.152 C36.1440037,1.94399896 36.9599955,1.84 37.856,1.84 C38.9600055,1.84 39.9279958,1.9999984 40.76,2.32 C41.5920042,2.6400016 42.3519966,3.15199648 43.04,3.856 L42.584,4.48 Z M55.904,19 L50.816,12.088 L47.624,14.992 L47.624,19 L46.808,19 L46.808,1.48 L47.624,1.48 L47.624,14.032 L55.712,6.568 L56.696,6.568 L51.392,11.56 L56.84,19 L55.904,19 Z M63.68,19.24 C62.8319958,19.24 62.0400037,19.0680017 61.304,18.724 C60.5679963,18.3799983 59.9240028,17.908003 59.372,17.308 C58.8199972,16.707997 58.3880016,16.012004 58.076,15.22 C57.7639984,14.427996 57.608,13.5840045 57.608,12.688 C57.608,11.8079956 57.7599985,10.9840038 58.064,10.216 C58.3680015,9.44799616 58.7919973,8.77600288 59.336,8.2 C59.8800027,7.62399712 60.5119964,7.16800168 61.232,6.832 C61.9520036,6.49599832 62.7359958,6.328 63.584,6.328 C64.4480043,6.328 65.2479963,6.49599832 65.984,6.832 C66.7200037,7.16800168 67.3599973,7.62799708 67.904,8.212 C68.4480027,8.79600292 68.8759984,9.47999608 69.188,10.264 C69.5000016,11.0480039 69.656,11.8799956 69.656,12.76 L69.656,12.952 C69.656,13.0480005 69.6480001,13.1039999 69.632,13.12 L58.448,13.12 C58.5120003,13.8880038 58.6919985,14.6039967 58.988,15.268 C59.2840015,15.9320033 59.6679976,16.5039976 60.14,16.984 C60.6120024,17.4640024 61.1559969,17.8439986 61.772,18.124 C62.3880031,18.4040014 63.0399966,18.544 63.728,18.544 C64.1760022,18.544 64.6199978,18.4840006 65.06,18.364 C65.5000022,18.2439994 65.9119981,18.0720011 66.296,17.848 C66.6800019,17.6239989 67.0159986,17.3560016 67.304,17.044 C67.5920014,16.7319984 67.8239991,16.3920018 68,16.024 L68.744,16.216 C68.5679991,16.6480022 68.3120017,17.0519981 67.976,17.428 C67.6399983,17.8040019 67.2440023,18.1239987 66.788,18.388 C66.3319977,18.6520013 65.8400026,18.8599992 65.312,19.012 C64.7839974,19.1640008 64.2400028,19.24 63.68,19.24 Z M68.84,12.424 C68.7919998,11.6399961 68.6240014,10.9200033 68.336,10.264 C68.0479986,9.60799672 67.6680024,9.0400024 67.196,8.56 C66.7239976,8.0799976 66.184003,7.70800132 65.576,7.444 C64.967997,7.17999868 64.3120035,7.048 63.608,7.048 C62.9039965,7.048 62.248003,7.18399864 61.64,7.456 C61.031997,7.72800136 60.5000023,8.1039976 60.044,8.584 C59.5879977,9.0640024 59.2200014,9.63199672 58.94,10.288 C58.6599986,10.9440033 58.4960002,11.6559962 58.448,12.424 L68.84,12.424 Z M77.48,18.424 C77.4479998,18.4400001 77.3680006,18.4839996 77.24,18.556 C77.1119994,18.6280004 76.9400011,18.7079996 76.724,18.796 C76.5079989,18.8840004 76.2600014,18.9599997 75.98,19.024 C75.6999986,19.0880003 75.3920017,19.12 75.056,19.12 C74.4319969,19.12 73.8920023,18.9400018 73.436,18.58 C72.9799977,18.2199982 72.752,17.7120033 72.752,17.056 L72.752,7.24 L70.976,7.24 L70.976,6.52 L72.752,6.52 L72.752,2.224 L73.568,2.224 L73.568,6.52 L76.52,6.52 L76.52,7.24 L73.568,7.24 L73.568,16.936 C73.6000002,17.4000023 73.7759984,17.7519988 74.096,17.992 C74.4160016,18.2320012 74.7839979,18.352 75.2,18.352 C75.4560013,18.352 75.6999988,18.3240003 75.932,18.268 C76.1640012,18.2119997 76.3679991,18.1480004 76.544,18.076 C76.7200009,18.0039996 76.8639994,17.9360003 76.976,17.872 C77.0880006,17.8079997 77.1519999,17.7680001 77.168,17.752 L77.48,18.424 Z M78.464,12.712 C78.464,11.8159955 78.6159985,10.9800039 78.92,10.204 C79.2240015,9.42799612 79.6479973,8.75200288 80.192,8.176 C80.7360027,7.59999712 81.3799963,7.14800164 82.124,6.82 C82.8680037,6.49199836 83.6719957,6.328 84.536,6.328 C85.6240054,6.328 86.5919958,6.57999748 87.44,7.084 C88.2880042,7.58800252 88.9199979,8.2799956 89.336,9.16 L88.544,9.448 C88.143998,8.71199632 87.5840036,8.13600208 86.864,7.72 C86.1439964,7.30399792 85.3440044,7.096 84.464,7.096 C83.7439964,7.096 83.0680032,7.23999856 82.436,7.528 C81.8039968,7.81600144 81.2520024,8.21199748 80.78,8.716 C80.3079976,9.22000252 79.9400013,9.81599656 79.676,10.504 C79.4119987,11.1920034 79.28,11.9279961 79.28,12.712 C79.28,13.4960039 79.4199986,14.2359965 79.7,14.932 C79.9800014,15.6280035 80.3559976,16.2399974 80.828,16.768 C81.3000024,17.2960026 81.8519968,17.7119985 82.484,18.016 C83.1160032,18.3200015 83.7839965,18.472 84.488,18.472 C84.9520023,18.472 85.4119977,18.4040007 85.868,18.268 C86.3240023,18.1319993 86.7439981,17.9520011 87.128,17.728 C87.5120019,17.5039989 87.8439986,17.2440015 88.124,16.948 C88.4040014,16.6519985 88.5919995,16.3360017 88.688,16 L89.504,16.24 C89.3599993,16.6720022 89.1240016,17.0719982 88.796,17.44 C88.4679984,17.8080018 88.0840022,18.1239987 87.644,18.388 C87.2039978,18.6520013 86.7200026,18.8599992 86.192,19.012 C85.6639974,19.1640008 85.1200028,19.24 84.56,19.24 C83.7119958,19.24 82.9200037,19.0680017 82.184,18.724 C81.4479963,18.3799983 80.8040028,17.912003 80.252,17.32 C79.6999972,16.727997 79.2640016,16.036004 78.944,15.244 C78.6239984,14.451996 78.464,13.6080045 78.464,12.712 Z M102.272,19 L101.456,19 L101.456,12.04 C101.456,8.74398352 100.360011,7.096 98.168,7.096 C97.6079972,7.096 97.0640026,7.19999896 96.536,7.408 C96.0079974,7.61600104 95.5200022,7.90399816 95.072,8.272 C94.6239978,8.64000184 94.2320017,9.07599748 93.896,9.58 C93.5599983,10.0840025 93.3120008,10.6239971 93.152,11.2 L93.152,19 L92.336,19 L92.336,1.48 L93.152,1.48 L93.152,9.64 C93.4080013,9.14399752 93.7239981,8.69200204 94.1,8.284 C94.4760019,7.87599796 94.8879978,7.52800144 95.336,7.24 C95.7840022,6.95199856 96.2599975,6.7280008 96.764,6.568 C97.2680025,6.4079992 97.7839974,6.328 98.312,6.328 C99.6560067,6.328 100.651997,6.81599512 101.3,7.792 C101.948003,8.76800488 102.272,10.151991 102.272,11.944 L102.272,19 Z M103.4,1.96 L109.664,11.632 L116,1.96 L116.912,1.96 L110.096,12.472 L110.096,19 L109.256,19 L109.256,12.424 L102.464,1.96 L103.4,1.96 Z M122.24,19.24 C121.391996,19.24 120.604004,19.0680017 119.876,18.724 C119.147996,18.3799983 118.512003,17.9160029 117.968,17.332 C117.423997,16.7479971 117.000002,16.0640039 116.696,15.28 C116.391998,14.4959961 116.24,13.6720043 116.24,12.808 C116.24,11.9279956 116.395998,11.0960039 116.708,10.312 C117.020002,9.52799608 117.447997,8.84000296 117.992,8.248 C118.536003,7.65599704 119.171996,7.18800172 119.9,6.844 C120.628004,6.49999828 121.407996,6.328 122.24,6.328 C123.072004,6.328 123.855996,6.49999828 124.592,6.844 C125.328004,7.18800172 125.967997,7.65599704 126.512,8.248 C127.056003,8.84000296 127.483998,9.52799608 127.796,10.312 C128.108002,11.0960039 128.264,11.9279956 128.264,12.808 C128.264,13.6720043 128.108002,14.4959961 127.796,15.28 C127.483998,16.0640039 127.060003,16.7479971 126.524,17.332 C125.987997,17.9160029 125.352004,18.3799983 124.616,18.724 C123.879996,19.0680017 123.088004,19.24 122.24,19.24 Z M117.056,12.832 C117.056,13.6000038 117.191999,14.3279966 117.464,15.016 C117.736001,15.7040034 118.103998,16.3039974 118.568,16.816 C119.032002,17.3280026 119.579997,17.7319985 120.212,18.028 C120.844003,18.3240015 121.511996,18.472 122.216,18.472 C122.936004,18.472 123.611997,18.3200015 124.244,18.016 C124.876003,17.7119985 125.427998,17.3040026 125.9,16.792 C126.372002,16.2799974 126.743999,15.6760035 127.016,14.98 C127.288001,14.2839965 127.424,13.5520038 127.424,12.784 C127.424,12.0159962 127.288001,11.2840035 127.016,10.588 C126.743999,9.89199652 126.372002,9.28800256 125.9,8.776 C125.427998,8.26399744 124.876003,7.85600152 124.244,7.552 C123.611997,7.24799848 122.944004,7.096 122.24,7.096 C121.535996,7.096 120.872003,7.24799848 120.248,7.552 C119.623997,7.85600152 119.076002,8.2679974 118.604,8.788 C118.131998,9.3080026 117.756001,9.91599652 117.476,10.612 C117.195999,11.3080035 117.056,12.0479961 117.056,12.832 Z M136.352,19.216 C135.487996,19.216 134.688004,19.0320018 133.952,18.664 C133.215996,18.2959982 132.584003,17.812003 132.056,17.212 C131.527997,16.611997 131.116001,15.9280038 130.82,15.16 C130.523999,14.3919962 130.376,13.608004 130.376,12.808 C130.376,11.9599958 130.515999,11.1480039 130.796,10.372 C131.076001,9.59599612 131.471997,8.908003 131.984,8.308 C132.496003,7.707997 133.107996,7.2280018 133.82,6.868 C134.532004,6.5079982 135.319996,6.328 136.184,6.328 C136.728003,6.328 137.239998,6.4079992 137.72,6.568 C138.200002,6.7280008 138.647998,6.94399864 139.064,7.216 C139.480002,7.48800136 139.863998,7.80799816 140.216,8.176 C140.568002,8.54400184 140.887999,8.93599792 141.176,9.352 L141.176,6.52 L141.944,6.52 L141.944,19.384 C141.944,20.2320042 141.788002,20.9639969 141.476,21.58 C141.163998,22.1960031 140.748003,22.7119979 140.228,23.128 C139.707997,23.5440021 139.104003,23.851999 138.416,24.052 C137.727997,24.252001 137.008004,24.352 136.256,24.352 C135.519996,24.352 134.868003,24.2800007 134.3,24.136 C133.731997,23.9919993 133.232002,23.7920013 132.8,23.536 C132.367998,23.2799987 131.988002,22.9720018 131.66,22.612 C131.331998,22.2519982 131.048001,21.8560022 130.808,21.424 L131.408,21.088 C131.920003,21.9840045 132.607996,22.631998 133.472,23.032 C134.336004,23.432002 135.263995,23.632 136.256,23.632 C136.928003,23.632 137.555997,23.5440009 138.14,23.368 C138.724003,23.1919991 139.239998,22.9240018 139.688,22.564 C140.136002,22.2039982 140.487999,21.7600026 140.744,21.232 C141.000001,20.7039974 141.128,20.0880035 141.128,19.384 L141.128,16.456 C140.871999,16.8720021 140.564002,17.2479983 140.204,17.584 C139.843998,17.9200017 139.456002,18.2079988 139.04,18.448 C138.623998,18.6880012 138.188002,18.8759993 137.732,19.012 C137.275998,19.1480007 136.816002,19.216 136.352,19.216 Z M136.472,18.472 C137.032003,18.472 137.579997,18.3640011 138.116,18.148 C138.652003,17.9319989 139.135998,17.6520017 139.568,17.308 C140.000002,16.9639983 140.355999,16.5800021 140.636,16.156 C140.916001,15.7319979 141.08,15.3040022 141.128,14.872 L141.128,10.576 C140.935999,10.0799975 140.668002,9.61600216 140.324,9.184 C139.979998,8.75199784 139.592002,8.38400152 139.16,8.08 C138.727998,7.77599848 138.264002,7.53600088 137.768,7.36 C137.271998,7.18399912 136.768003,7.096 136.256,7.096 C135.455996,7.096 134.744003,7.26399832 134.12,7.6 C133.495997,7.93600168 132.968002,8.37599728 132.536,8.92 C132.103998,9.46400272 131.776001,10.0759966 131.552,10.756 C131.327999,11.4360034 131.216,12.1199966 131.216,12.808 C131.216,13.5600038 131.351999,14.2759966 131.624,14.956 C131.896001,15.6360034 132.267998,16.2359974 132.74,16.756 C133.212002,17.2760026 133.767997,17.6919984 134.408,18.004 C135.048003,18.3160016 135.735996,18.472 136.472,18.472 Z M148.856,19.24 C148.279997,19.24 147.744002,19.140001 147.248,18.94 C146.751998,18.739999 146.320002,18.4680017 145.952,18.124 C145.583998,17.7799983 145.296001,17.3760023 145.088,16.912 C144.879999,16.4479977 144.776,15.9440027 144.776,15.4 C144.776,14.8719974 144.903999,14.3880022 145.16,13.948 C145.416001,13.5079978 145.771998,13.1280016 146.228,12.808 C146.684002,12.4879984 147.227997,12.2400009 147.86,12.064 C148.492003,11.8879991 149.183996,11.8 149.936,11.8 C150.640004,11.8 151.347996,11.8559994 152.06,11.968 C152.772004,12.0800006 153.415997,12.2479989 153.992,12.472 L153.992,11.128 C153.992,9.87999376 153.636004,8.88400372 152.924,8.14 C152.211996,7.39599628 151.256006,7.024 150.056,7.024 C149.447997,7.024 148.800003,7.15599868 148.112,7.42 C147.423997,7.68400132 146.736003,8.06399752 146.048,8.56 L145.664,7.96 C147.264008,6.87199456 148.743993,6.328 150.104,6.328 C151.560007,6.328 152.707996,6.75999568 153.548,7.624 C154.388004,8.48800432 154.808,9.67199248 154.808,11.176 L154.808,17.704 C154.808,18.0560018 154.951999,18.232 155.24,18.232 L155.24,19 C155.192,19.0160001 155.148,19.024 155.108,19.024 L155,19.024 C154.727999,19.024 154.500001,18.924001 154.316,18.724 C154.131999,18.523999 154.04,18.2800014 154.04,17.992 L154.04,16.888 C153.463997,17.6400038 152.720005,18.219998 151.808,18.628 C150.895995,19.036002 149.912005,19.24 148.856,19.24 Z M148.952,18.544 C149.544003,18.544 150.139997,18.4640008 150.74,18.304 C151.340003,18.1439992 151.879998,17.9240014 152.36,17.644 C152.840002,17.3639986 153.231998,17.0400018 153.536,16.672 C153.840002,16.3039982 153.992,15.9120021 153.992,15.496 L153.992,13.144 C152.743994,12.6639976 151.416007,12.424 150.008,12.424 C149.351997,12.424 148.752003,12.4959993 148.208,12.64 C147.663997,12.7840007 147.196002,12.9839987 146.804,13.24 C146.411998,13.4960013 146.108001,13.8039982 145.892,14.164 C145.675999,14.5240018 145.568,14.9279978 145.568,15.376 C145.568,15.8240022 145.655999,16.2399981 145.832,16.624 C146.008001,17.0080019 146.247998,17.3439986 146.552,17.632 C146.856002,17.9200014 147.211998,18.1439992 147.62,18.304 C148.028002,18.4640008 148.471998,18.544 148.952,18.544 Z" id="SketchYoga" fill="#000000"></path>
                <g id="Group-4-Copy" fill="#333333">
                    <polygon id="Y" points="19.3295455 0 21 0 11.2159091 12.2058824 11.2159091 21 9.71590909 21 9.71590909 12.2058824 0 0 1.70454545 0 10.5 11.1176471"></polygon>
                    <path d="M0,0 L1.62247586,0 L1.62247586,21 L0,21 L0,0 Z M5,6 L5,6 C5.89606867,6 6.62247586,6.72640718 6.62247586,7.62247586 L6.62247586,17.7704248 L5,17.7704248 L5,6 Z" id="II"></path>
                </g>
            </g>
        </g>
    </g>
</svg>